<svg
  xmlns="http://www.w3.org/2000/svg"
  xmlns:xlink="http://www.w3.org/1999/xlink"
  version="1.1" x="0px" y="0px" viewBox="0 0 850.4 1063"
  enable-background="new 0 0 850.4 850.4"
  xml:space="preserve">
  <path d="M181,583.6l91.8-38l51.2,51.2l-38,91.8L181,583.6z M515.8,587.6H336l-53.9-53.9V316.1l53.9-53.9h179.9l53.9,53.9v217.5  L515.8,587.6z M579,304.2l-51.2-51.2l38-91.8l105,105L579,304.2z M513.9,247.2H337.9l-38-91.8H552L513.9,247.2z M324.1,252.9  l-51.2,51.2l-91.8-38l105-105L324.1,252.9z M267.1,318v213.7l-91.8,38V280L267.1,318z M337.9,602.5h176.1l38,91.8H299.9L337.9,602.5  z M565.8,688.6l-38-91.8l51.2-51.2l91.8,38L565.8,688.6z M584.7,531.7V318l91.8-38v289.8L584.7,531.7z"/>
  <!-- <text x="0" y="865.4" fill="#000000" font-size="5px" font-weight="bold" font-family="'Helvetica Neue', Helvetica, Arial-Unicode, Arial, Sans-serif">Created by Alvaro Cabrera</text>
  <text x="0" y="870.4" fill="#000000" font-size="5px" font-weight="bold" font-family="'Helvetica Neue', Helvetica, Arial-Unicode, Arial, Sans-serif">from the Noun Project</text> -->
</svg>