<svg
xmlns="http://www.w3.org/2000/svg"
version="1.0" x="0px" y="0px" viewBox="0 0 100 125">
  <g>
    <path d="M82.969,33.383l-4.191-8.266c-0.497-0.981-1.335-0.993-1.86-0.027L59.329,57.41c-0.525,0.967-0.617,2.591-0.202,3.609    l6.158,15.128c0.415,1.019,1.1,1.021,1.522,0.006l16.297-39.141C83.527,35.998,83.466,34.364,82.969,33.383z"/>
    <path d="M25.039,57.843l30,0.147c1.1,0.005,2.438-0.777,2.972-1.738l18.057-32.503C76.602,22.787,76.139,22,75.039,22h-21    c-1.1,0-2.566,0.7-3.259,1.555L24.297,56.278C23.605,57.134,23.938,57.838,25.039,57.843z M55.581,56.417    c-1.208,0.708-3.375,0.375-3.375,0.375c0.5,0,6.583-3.833,6.583-3.833S56.789,55.709,55.581,56.417z M51.205,24.583    c0,0,1.667-1.583,3.334-1.583s16.583,0.25,16.583,0.25l-26.75,10.833L51.205,24.583z"/>
    <path d="M57.73,60.877C57.351,59.845,56.139,59,55.039,59h-30c-1.101,0-2.312,0.845-2.691,1.877L16.73,76.123    C16.35,77.155,16.938,78,18.039,78h44c1.1,0,1.688-0.845,1.309-1.877L57.73,60.877z M22.289,64.563c0,0,0.75-2.75,1.625-3.625    s2.875-0.688,2.875-0.688L22.289,64.563z"/>
  </g>
  <!-- <text x="0" y="115" fill="#000000" font-size="5px" font-weight="bold" font-family="'Helvetica Neue', Helvetica, Arial-Unicode, Arial, Sans-serif">Created by Monjin Friends</text>
  <text x="0" y="120" fill="#000000" font-size="5px" font-weight="bold" font-family="'Helvetica Neue', Helvetica, Arial-Unicode, Arial, Sans-serif">from the Noun Project</text> -->
</svg>