<svg
  xmlns="http://www.w3.org/2000/svg"
  xmlns:xlink="http://www.w3.org/1999/xlink"
  version="1.1" x="0px" y="0px" viewBox="0 0 66 82.5"
  enable-background="new 0 0 66 66"
  xml:space="preserve">
  <g>
    <path d="M23.437,7.915h0.06v2.53c0.21-0.04,0.42-0.07,0.64-0.1l0.12-0.01h17.49l0.12,0.01c0.22,0.03,0.44,0.06,0.65,0.1v-2.53h0.05   c1.75,0,3.19-1.43,3.19-3.19c0-1.75-1.44-3.18-3.19-3.18h-19.13c-1.76,0-3.19,1.43-3.19,3.18   C20.247,6.485,21.677,7.915,23.437,7.915z"/>
    <path d="M18.004,51.113h30.001c0.435-0.946,0.847-1.935,1.237-2.95H16.767C17.157,49.178,17.569,50.167,18.004,51.113z"/>
    <path d="M46.438,32.413c-1.679,0-2.475,0.801-3.481,1.815c-3.198,3.22-6.536,3.294-9.813-0.002c-2.418-2.431-4.478-2.5-6.962,0.002   c-3.235,3.258-6.563,3.26-9.801,0c-0.948-0.955-1.718-1.712-3.206-1.798c0.332,4.556,1.369,9.352,2.864,13.733h33.932   c1.089-3.19,1.934-6.601,2.443-9.979c-0.903-0.449-1.623-1.142-2.292-1.792C49.029,33.33,48.085,32.413,46.438,32.413z"/>
    <path d="M18.988,53.113c1.142,2.183,2.392,4.091,3.699,5.582c-0.82,0.57-1.35,1.52-1.35,2.6c0,1.74,1.41,3.16,3.16,3.16h17.02   c1.74,0,3.16-1.42,3.16-3.16c0-1.07-0.53-2.02-1.35-2.6c1.305-1.49,2.554-3.399,3.696-5.582H18.988z"/>
    <path d="M50.002,27.986c-2.595-2.602-4.639-2.491-7.045-0.068c-8.279,8.337-10.095-6.727-16.776,0c-3.235,3.258-6.563,3.26-9.801,0   c-0.939-0.946-1.704-1.697-3.165-1.795c-0.135,1.381-0.182,2.821-0.144,4.301c2.392,0.06,3.635,1.294,4.728,2.394   c2.416,2.434,4.479,2.502,6.963,0c3.234-3.257,6.56-3.261,9.8-0.002c2.447,2.46,4.512,2.485,6.976,0.002   c3.377-3.4,6.622-3.122,9.978,0.139c0.435,0.423,0.811,0.775,1.178,1.051c0.142-1.336,0.227-2.656,0.249-3.948   C51.65,29.625,50.764,28.751,50.002,27.986z"/>
    <path d="M24.763,20.203c3.235-3.249,6.557-3.252,9.798-0.003c2.447,2.455,4.513,2.479,6.978,0.003c3.237-3.251,6.561-3.252,9.799,0   c0.068,0.068,0.134,0.133,0.2,0.199c-1.774-4.718-5.179-7.505-9.911-8.067h-17.25c-3.996,0.474-7.046,2.536-8.968,6.007   c1.001,0.476,1.723,1.194,2.387,1.861C20.208,22.625,22.273,22.704,24.763,20.203z"/>
    <path d="M24.762,26.509c3.233-3.256,6.559-3.261,9.799-0.003c2.461,2.474,4.525,2.471,6.977,0.003   c3.202-3.224,6.514-3.309,9.88,0.065c0.519,0.521,0.978,0.969,1.5,1.288c-0.065-1.513-0.23-2.967-0.503-4.336   c-1.057-0.474-1.805-1.221-2.494-1.913c-2.417-2.428-4.48-2.496-6.965,0c-3.191,3.205-6.528,3.292-9.812-0.002   c-2.424-2.431-4.484-2.489-6.964,0.002c-3.236,3.25-6.562,3.252-9.801,0c-0.605-0.608-1.134-1.135-1.821-1.463   c-0.124,0.316-0.242,0.64-0.351,0.974c-0.309,0.949-0.548,1.96-0.729,3.016c2.127,0.183,3.293,1.333,4.321,2.368   C20.205,28.931,22.268,29.02,24.762,26.509z"/>
  </g>
  <!-- <text x="0" y="81" fill="#000000" font-size="5px" font-weight="bold" font-family="'Helvetica Neue', Helvetica, Arial-Unicode, Arial, Sans-serif">Created by ProSymbols</text>
  <text x="0" y="86" fill="#000000" font-size="5px" font-weight="bold" font-family="'Helvetica Neue', Helvetica, Arial-Unicode, Arial, Sans-serif">from the Noun Project</text> -->
</svg>