<svg
  xmlns="http://www.w3.org/2000/svg"
  viewBox="0 0 12.7 15.875"
  version="1.1" x="0px" y="0px">

  <g transform="translate(0,-284.29998)">
    <path style="" d="m 12.066058,287.03836 a 1.3115625,1.3115625 0 0 0 -1.277219,1.80936 2.1791097,2.1791097 0 0 1 -1.003964,2.53629 l -0.052746,0.28118 a 2.4046234,2.4046234 0 0 0 1.269448,-2.8945 1.0860488,1.0860488 0 0 1 1.054117,-1.50709 0.11275684,0.11275684 0 0 0 0.0099,-0.22524 z" fill="#000000" stroke="none"/>
    <path style="" d="m 6.9900309,290.74323 a 3.0807937,3.0807937 0 0 0 2.4316505,1.21826 4.5427241,4.5427241 0 0 1 -0.3735699,0.88614 3.6821131,3.6821131 0 0 1 -2.8692073,-1.57426 5.0816721,5.0816721 0 0 1 0.8111267,-0.53014 z" fill="#000000" stroke="none"/>
    <path style="" d="m 7.1967036,290.64041 a 2.8540565,2.8540565 0 0 0 2.2872353,1.09414 4.5427241,4.5427241 0 0 0 0.105492,-1.56903 5.0816721,5.0816721 0 0 0 -2.3927396,0.47489 z" fill="#000000" stroke="none"/>
    <path style="" d="m 6.0050896,291.41948 a 5.0816721,5.0816721 0 0 0 -0.5741898,0.5911 5.6849671,5.6849671 0 0 0 2.9677941,1.73336 4.5427241,4.5427241 0 0 0 0.5197021,-0.6766 3.9088503,3.9088503 0 0 1 -2.9133064,-1.64786 z" fill="#000000" stroke="none"/>
    <path style="" d="m 5.2890786,292.19129 a 5.0816721,5.0816721 0 0 0 -0.5041377,0.82546 6.4112802,6.4112802 0 0 0 2.6538877,1.51101 4.5427241,4.5427241 0 0 0 0.7730803,-0.59504 5.9117044,5.9117044 0 0 1 -2.9228303,-1.74143 z" fill="#000000" stroke="none"/>
    <path style="" d="m 7.1646978,294.6819 a 4.5427241,4.5427241 0 0 1 -2.8916892,0.44001 5.0816721,5.0816721 0 0 1 0.4124808,-1.88782 6.6380174,6.6380174 0 0 0 2.4792084,1.44781 z" fill="#000000" stroke="none"/>
    <path style="" d="m 7.526162,286.82697 a 8.0118894,8.0118894 0 0 0 -2.2422715,0.71495 2.0790252,2.0790252 0 0 1 0.2602834,-1.41006 4.5427241,4.5427241 0 0 1 1.9819881,0.69511 z" fill="#000000" stroke="none"/>
    <path style="" d="m 5.2951314,286.11275 a 4.5427241,4.5427241 0 0 0 -0.9650534,0.0555 3.6051477,3.6051477 0 0 0 -0.1565209,2.03433 8.0118894,8.0118894 0 0 1 0.9002019,-0.55348 2.3057624,2.3057624 0 0 1 0.2213724,-1.53637 z" fill="#000000" stroke="none"/>
    <path style="" d="m 3.1185762,286.54886 a 3.8214509,3.8214509 0 0 0 0.2455837,2.31196 8.0118894,8.0118894 0 0 1 0.6105067,-0.51201 3.8318851,3.8318851 0 0 1 0.096845,-2.12986 4.5427241,4.5427241 0 0 0 -0.9529478,0.32991 z" fill="#000000" stroke="none"/>
    <path style="" d="m 2.8643456,286.68007 a 4.5427241,4.5427241 0 0 0 -1.0255816,0.77908 2.5143662,2.5143662 0 0 0 0.678817,2.32037 8.0118894,8.0118894 0 0 1 0.6727766,-0.75267 4.0481882,4.0481882 0 0 1 -0.326012,-2.34678 z" fill="#000000" stroke="none"/>
    <path style="" d="m 2.3783539,289.96113 a 8.0118894,8.0118894 0 0 0 -0.6390414,1.01127 2.3160536,2.3160536 0 0 1 -0.9408298,-1.86217 4.5427241,4.5427241 0 0 1 0.7644211,-1.34526 2.7411034,2.7411034 0 0 0 0.8154501,2.19616 z" fill="#000000" stroke="none"/>
    <path style="" d="m 1.6346853,291.17649 a 8.0118894,8.0118894 0 0 0 -0.5862954,1.58217 4.5427241,4.5427241 0 0 1 -0.41334556,-3.08404 2.5427909,2.5427909 0 0 0 0.99964096,1.50187 z" fill="#000000" stroke="none"/>
    <path style="" d="m 9.2158733,288.7881 a 6.6858383,6.6858383 0 0 0 -6.1647428,5.93009 4.5427241,4.5427241 0 0 0 0.9961822,0.3575 5.3084093,5.3084093 0 0 1 5.5109894,-5.1384 4.5427241,4.5427241 0 0 0 -0.3424288,-1.14919 z" fill="#000000" stroke="none"/>
    <path style="" d="m 9.1103691,288.56896 a 4.5427241,4.5427241 0 0 0 -0.4522565,-0.70807 7.1209897,7.1209897 0 0 0 -6.5858705,6.20014 4.5427241,4.5427241 0 0 0 0.7635688,0.54312 6.9125756,6.9125756 0 0 1 6.2745582,-6.03519 z" fill="#000000" stroke="none"/>
    <path style="" d="m 8.4808392,287.64733 a 4.5427241,4.5427241 0 0 0 -0.6822758,-0.63124 7.7851522,7.7851522 0 0 0 -6.5858705,6.03037 4.5427241,4.5427241 0 0 0 0.6563352,0.82516 7.3477269,7.3477269 0 0 1 6.6118111,-6.22429 z" fill="#000000" stroke="none"/>
  </g>
  <!-- <text x="0" y="27.7" fill="#000000" font-size="5px" font-weight="bold" font-family="'Helvetica Neue', Helvetica, Arial-Unicode, Arial, Sans-serif">Created by Phạm Thanh Lộc</text>
  <text x="0" y="32.7" fill="#000000" font-size="5px" font-weight="bold" font-family="'Helvetica Neue', Helvetica, Arial-Unicode, Arial, Sans-serif">from the Noun Project</text> -->
</svg>